<svg width="133" height="30" viewBox="0 0 133 30" fill="none" xmlns="http://www.w3.org/2000/svg">
<path d="M16.75 19.1V23H0.49V2H16.36V5.9H5.32V10.46H15.07V14.24H5.32V19.1H16.75ZM29.4698 23.24C27.7498 23.24 26.1998 22.89 24.8198 22.19C23.4598 21.47 22.3898 20.48 21.6098 19.22C20.8498 17.96 20.4698 16.53 20.4698 14.93C20.4698 13.33 20.8498 11.9 21.6098 10.64C22.3898 9.38 23.4598 8.4 24.8198 7.7C26.1998 6.98 27.7498 6.62 29.4698 6.62C31.1698 6.62 32.6498 6.98 33.9098 7.7C35.1898 8.4 36.1198 9.41 36.6998 10.73L33.0698 12.68C32.2298 11.2 31.0198 10.46 29.4398 10.46C28.2198 10.46 27.2098 10.86 26.4098 11.66C25.6098 12.46 25.2098 13.55 25.2098 14.93C25.2098 16.31 25.6098 17.4 26.4098 18.2C27.2098 19 28.2198 19.4 29.4398 19.4C31.0398 19.4 32.2498 18.66 33.0698 17.18L36.6998 19.16C36.1198 20.44 35.1898 21.44 33.9098 22.16C32.6498 22.88 31.1698 23.24 29.4698 23.24ZM48.3693 23.24C46.6693 23.24 45.1393 22.89 43.7793 22.19C42.4393 21.47 41.3893 20.48 40.6293 19.22C39.8693 17.96 39.4893 16.53 39.4893 14.93C39.4893 13.33 39.8693 11.9 40.6293 10.64C41.3893 9.38 42.4393 8.4 43.7793 7.7C45.1393 6.98 46.6693 6.62 48.3693 6.62C50.0693 6.62 51.5893 6.98 52.9293 7.7C54.2693 8.4 55.3193 9.38 56.0793 10.64C56.8393 11.9 57.2193 13.33 57.2193 14.93C57.2193 16.53 56.8393 17.96 56.0793 19.22C55.3193 20.48 54.2693 21.47 52.9293 22.19C51.5893 22.89 50.0693 23.24 48.3693 23.24ZM48.3693 19.4C49.5693 19.4 50.5493 19 51.3093 18.2C52.0893 17.38 52.4793 16.29 52.4793 14.93C52.4793 13.57 52.0893 12.49 51.3093 11.69C50.5493 10.87 49.5693 10.46 48.3693 10.46C47.1693 10.46 46.1793 10.87 45.3993 11.69C44.6193 12.49 44.2293 13.57 44.2293 14.93C44.2293 16.29 44.6193 17.38 45.3993 18.2C46.1793 19 47.1693 19.4 48.3693 19.4ZM61.8475 0.739999H66.5275V23H61.8475V0.739999ZM80.0509 23.24C78.3509 23.24 76.8209 22.89 75.4609 22.19C74.1209 21.47 73.0709 20.48 72.3109 19.22C71.5509 17.96 71.1709 16.53 71.1709 14.93C71.1709 13.33 71.5509 11.9 72.3109 10.64C73.0709 9.38 74.1209 8.4 75.4609 7.7C76.8209 6.98 78.3509 6.62 80.0509 6.62C81.7509 6.62 83.2709 6.98 84.6109 7.7C85.9509 8.4 87.0009 9.38 87.7609 10.64C88.5209 11.9 88.9009 13.33 88.9009 14.93C88.9009 16.53 88.5209 17.96 87.7609 19.22C87.0009 20.48 85.9509 21.47 84.6109 22.19C83.2709 22.89 81.7509 23.24 80.0509 23.24ZM80.0509 19.4C81.2509 19.4 82.2309 19 82.9909 18.2C83.7709 17.38 84.1609 16.29 84.1609 14.93C84.1609 13.57 83.7709 12.49 82.9909 11.69C82.2309 10.87 81.2509 10.46 80.0509 10.46C78.8509 10.46 77.8609 10.87 77.0809 11.69C76.3009 12.49 75.9109 13.57 75.9109 14.93C75.9109 16.29 76.3009 17.38 77.0809 18.2C77.8609 19 78.8509 19.4 80.0509 19.4ZM110.179 6.86V20.3C110.179 23.26 109.409 25.46 107.869 26.9C106.329 28.34 104.079 29.06 101.119 29.06C99.5591 29.06 98.0791 28.87 96.6791 28.49C95.2791 28.11 94.1191 27.56 93.1991 26.84L95.0591 23.48C95.7391 24.04 96.5991 24.48 97.6391 24.8C98.6791 25.14 99.7191 25.31 100.759 25.31C102.379 25.31 103.569 24.94 104.329 24.2C105.109 23.48 105.499 22.38 105.499 20.9V20.21C104.279 21.55 102.579 22.22 100.399 22.22C98.9191 22.22 97.5591 21.9 96.3191 21.26C95.0991 20.6 94.1291 19.68 93.4091 18.5C92.6891 17.32 92.3291 15.96 92.3291 14.42C92.3291 12.88 92.6891 11.52 93.4091 10.34C94.1291 9.16 95.0991 8.25 96.3191 7.61C97.5591 6.95 98.9191 6.62 100.399 6.62C102.739 6.62 104.519 7.39 105.739 8.93V6.86H110.179ZM101.329 18.38C102.569 18.38 103.579 18.02 104.359 17.3C105.159 16.56 105.559 15.6 105.559 14.42C105.559 13.24 105.159 12.29 104.359 11.57C103.579 10.83 102.569 10.46 101.329 10.46C100.089 10.46 99.0691 10.83 98.2691 11.57C97.4691 12.29 97.0691 13.24 97.0691 14.42C97.0691 15.6 97.4691 16.56 98.2691 17.3C99.0691 18.02 100.089 18.38 101.329 18.38ZM132.055 6.86L124.765 23.99C124.025 25.85 123.105 27.16 122.005 27.92C120.925 28.68 119.615 29.06 118.075 29.06C117.235 29.06 116.405 28.93 115.585 28.67C114.765 28.41 114.095 28.05 113.575 27.59L115.285 24.26C115.645 24.58 116.055 24.83 116.515 25.01C116.995 25.19 117.465 25.28 117.925 25.28C118.565 25.28 119.085 25.12 119.485 24.8C119.885 24.5 120.245 23.99 120.565 23.27L120.625 23.12L113.635 6.86H118.465L122.995 17.81L127.555 6.86H132.055Z" fill="black"/>
</svg>
